<svg width="463" height="242" viewBox="0 0 463 242" fill="none" xmlns="http://www.w3.org/2000/svg">
<rect x="262.409" y="139.885" width="90.5906" height="72.6413" rx="7.62144" transform="rotate(-3.12226 262.409 139.885)" fill="#1674A9"/>
<g filter="url(#filter0_d_2621_13787)">
<g clip-path="url(#clip0_2621_13787)">
<path d="M148.045 6.13843C148.045 3.92929 149.836 2.13843 152.045 2.13843H307.906C310.115 2.13843 311.906 3.92929 311.906 6.13843V205.91C311.906 208.119 310.115 209.91 307.906 209.91H152.045C149.836 209.91 148.045 208.119 148.045 205.91V6.13843Z" fill="white"/>
<rect x="146.974" y="2.13843" width="167.074" height="25.7037" fill="#1674A9"/>
<path d="M159.826 12.8484H212.84" stroke="white" stroke-width="2.14197" stroke-linecap="round" stroke-linejoin="round"/>
<path d="M159.826 19.2742H195.168" stroke="white" stroke-width="2.14197" stroke-linecap="round" stroke-linejoin="round"/>
<path d="M163.039 53.5459H184.459" stroke="#1674A9" stroke-width="8.56789" stroke-linecap="round" stroke-linejoin="round"/>
<path opacity="0.6" d="M159.826 64.2556H195.168" stroke="#1674A9" stroke-width="2.14197" stroke-linecap="round" stroke-linejoin="round"/>
<path opacity="0.6" d="M159.826 69.6106H188.743" stroke="#1674A9" stroke-width="2.14197" stroke-linecap="round" stroke-linejoin="round"/>
<path opacity="0.6" d="M159.826 74.9656H181.246" stroke="#1674A9" stroke-width="2.14197" stroke-linecap="round" stroke-linejoin="round"/>
<path d="M212.304 53.5459H239.079" stroke="#1674A9" stroke-width="8.56789" stroke-linecap="round" stroke-linejoin="round"/>
<path opacity="0.6" d="M212.304 64.2556H247.647" stroke="#1674A9" stroke-width="2.14197" stroke-linecap="round" stroke-linejoin="round"/>
<path opacity="0.6" d="M212.304 69.6106H232.653" stroke="#1674A9" stroke-width="2.14197" stroke-linecap="round" stroke-linejoin="round"/>
<path opacity="0.6" d="M212.304 74.9656H239.079" stroke="#1674A9" stroke-width="2.14197" stroke-linecap="round" stroke-linejoin="round"/>
<path d="M261.57 53.5459H287.274" stroke="#1674A9" stroke-width="8.56789" stroke-linecap="round" stroke-linejoin="round"/>
<path opacity="0.6" d="M261.57 64.2556H289.415" stroke="#1674A9" stroke-width="2.14197" stroke-linecap="round" stroke-linejoin="round"/>
<path opacity="0.6" d="M261.57 69.6106H296.912" stroke="#1674A9" stroke-width="2.14197" stroke-linecap="round" stroke-linejoin="round"/>
<path opacity="0.6" d="M261.57 74.9656H279.777" stroke="#1674A9" stroke-width="2.14197" stroke-linecap="round" stroke-linejoin="round"/>
<path opacity="0.9" d="M159.826 175.638H245.505" stroke="#1674A9" stroke-width="2.14197" stroke-linecap="round" stroke-linejoin="round"/>
<path opacity="0.9" d="M159.826 180.993H220.872" stroke="#1674A9" stroke-width="2.14197" stroke-linecap="round" stroke-linejoin="round"/>
<path opacity="0.9" d="M159.826 186.348H250.86" stroke="#1674A9" stroke-width="2.14197" stroke-linecap="round" stroke-linejoin="round"/>
<rect x="159.826" y="85.6753" width="140.299" height="8.56789" fill="#DADADA"/>
<g opacity="0.3">
<path d="M179.427 86.7463V156.36" stroke="#B5B5B5" stroke-width="1.07099" stroke-linecap="round"/>
<path d="M200.059 86.7463V156.36" stroke="#B5B5B5" stroke-width="1.07099" stroke-linecap="round"/>
<path d="M219.66 86.7463V156.36" stroke="#B5B5B5" stroke-width="1.07099" stroke-linecap="round"/>
<path d="M240.292 86.7463V156.36" stroke="#B5B5B5" stroke-width="1.07099" stroke-linecap="round"/>
<path d="M280.525 86.7463V156.36" stroke="#B5B5B5" stroke-width="1.07099" stroke-linecap="round"/>
<path d="M259.892 86.7463V156.36" stroke="#B5B5B5" stroke-width="1.07099" stroke-linecap="round"/>
<path d="M300.125 86.7463V156.36" stroke="#B5B5B5" stroke-width="1.07099" stroke-linecap="round"/>
<path d="M159.826 86.7463V156.36" stroke="#B5B5B5" stroke-width="1.07099" stroke-linecap="round"/>
</g>
<g opacity="0.3">
<path d="M159.826 156.361L300.125 156.361" stroke="#B5B5B5" stroke-width="1.07099" stroke-linecap="round"/>
<path d="M159.826 144.278L300.125 144.278" stroke="#B5B5B5" stroke-width="1.07099" stroke-linecap="round"/>
<path d="M159.826 132.799L300.125 132.799" stroke="#B5B5B5" stroke-width="1.07099" stroke-linecap="round"/>
<path d="M159.826 120.716L300.125 120.716" stroke="#B5B5B5" stroke-width="1.07099" stroke-linecap="round"/>
<path d="M159.826 97.1543L300.125 97.1543" stroke="#B5B5B5" stroke-width="1.07099" stroke-linecap="round"/>
<path d="M159.826 109.237L300.125 109.237" stroke="#B5B5B5" stroke-width="1.07099" stroke-linecap="round"/>
<path d="M159.826 85.6753L300.125 85.6753" stroke="#B5B5B5" stroke-width="1.07099" stroke-linecap="round"/>
</g>
</g>
</g>
<g filter="url(#filter1_d_2621_13787)">
<rect x="4" y="101.217" width="113.559" height="62.4958" rx="5.0815" fill="white"/>
<path d="M35.9551 122.77H86.3684" stroke="#62BF8D" stroke-width="9.32864" stroke-linecap="round" stroke-linejoin="round"/>
<path d="M21.2665 147.108V148.343H16.7321V147.108H21.2665ZM17.1663 139.311V148.343H15.6094V139.311H17.1663ZM22.0357 145.061V144.919C22.0357 144.435 22.106 143.986 22.2466 143.573C22.3872 143.155 22.5898 142.793 22.8545 142.487C23.1233 142.177 23.45 141.937 23.8346 141.768C24.2233 141.594 24.6616 141.507 25.1496 141.507C25.6417 141.507 26.0801 141.594 26.4646 141.768C26.8534 141.937 27.1821 142.177 27.4509 142.487C27.7197 142.793 27.9244 143.155 28.065 143.573C28.2056 143.986 28.2759 144.435 28.2759 144.919V145.061C28.2759 145.545 28.2056 145.994 28.065 146.407C27.9244 146.821 27.7197 147.183 27.4509 147.493C27.1821 147.799 26.8554 148.039 26.4708 148.213C26.0863 148.382 25.65 148.467 25.162 148.467C24.6699 148.467 24.2295 148.382 23.8408 148.213C23.4562 148.039 23.1295 147.799 22.8607 147.493C22.5919 147.183 22.3872 146.821 22.2466 146.407C22.106 145.994 22.0357 145.545 22.0357 145.061ZM23.5306 144.919V145.061C23.5306 145.363 23.5616 145.649 23.6237 145.917C23.6857 146.186 23.7829 146.422 23.9152 146.625C24.0475 146.827 24.2171 146.986 24.4238 147.102C24.6306 147.218 24.8767 147.276 25.162 147.276C25.4391 147.276 25.6789 147.218 25.8816 147.102C26.0883 146.986 26.2579 146.827 26.3902 146.625C26.5225 146.422 26.6197 146.186 26.6817 145.917C26.7479 145.649 26.781 145.363 26.781 145.061V144.919C26.781 144.621 26.7479 144.34 26.6817 144.075C26.6197 143.806 26.5205 143.569 26.384 143.362C26.2517 143.155 26.0821 142.994 25.8754 142.878C25.6727 142.758 25.4308 142.698 25.1496 142.698C24.8684 142.698 24.6244 142.758 24.4176 142.878C24.215 142.994 24.0475 143.155 23.9152 143.362C23.7829 143.569 23.6857 143.806 23.6237 144.075C23.5616 144.34 23.5306 144.621 23.5306 144.919ZM31.0114 143.064V148.343H29.5165V141.631H30.9246L31.0114 143.064ZM30.7447 144.739L30.2609 144.733C30.265 144.257 30.3312 143.821 30.4594 143.424C30.5917 143.027 30.7737 142.686 31.0052 142.4C31.241 142.115 31.5222 141.896 31.8488 141.743C32.1755 141.586 32.5395 141.507 32.9406 141.507C33.2631 141.507 33.5547 141.553 33.8152 141.644C34.0799 141.73 34.3052 141.873 34.4913 142.072C34.6816 142.27 34.8263 142.528 34.9255 142.847C35.0248 143.161 35.0744 143.548 35.0744 144.007V148.343H33.5733V144.001C33.5733 143.678 33.5257 143.424 33.4306 143.238C33.3396 143.047 33.2052 142.913 33.0274 142.835C32.8537 142.752 32.6366 142.71 32.3761 142.71C32.1197 142.71 31.8902 142.764 31.6876 142.872C31.4849 142.979 31.3133 143.126 31.1727 143.312C31.0363 143.498 30.9308 143.713 30.8564 143.957C30.7819 144.201 30.7447 144.462 30.7447 144.739ZM40.899 141.631H42.2575V148.157C42.2575 148.76 42.1293 149.273 41.8729 149.695C41.6165 150.117 41.2588 150.437 40.7998 150.656C40.3408 150.88 39.8094 150.991 39.2056 150.991C38.9492 150.991 38.6639 150.954 38.3496 150.88C38.0395 150.805 37.7376 150.685 37.444 150.52C37.1545 150.359 36.9126 150.146 36.7182 149.881L37.4192 149C37.659 149.286 37.9237 149.494 38.2131 149.627C38.5026 149.759 38.8066 149.825 39.125 149.825C39.4682 149.825 39.7598 149.761 39.9996 149.633C40.2436 149.509 40.4317 149.325 40.5641 149.081C40.6964 148.837 40.7626 148.539 40.7626 148.188V143.151L40.899 141.631ZM36.3398 145.061V144.931C36.3398 144.422 36.4019 143.959 36.5259 143.542C36.65 143.12 36.8278 142.758 37.0594 142.456C37.291 142.15 37.5722 141.916 37.903 141.755C38.2338 141.59 38.6081 141.507 39.0257 141.507C39.4599 141.507 39.8301 141.586 40.1361 141.743C40.4462 141.9 40.7047 142.125 40.9114 142.419C41.1182 142.708 41.2795 143.056 41.3953 143.461C41.5152 143.862 41.6041 144.309 41.662 144.801V145.216C41.6082 145.696 41.5173 146.135 41.3891 146.531C41.2609 146.928 41.0913 147.272 40.8804 147.561C40.6695 147.851 40.409 148.074 40.0989 148.231C39.7928 148.388 39.431 148.467 39.0133 148.467C38.6039 148.467 38.2338 148.382 37.903 148.213C37.5763 148.043 37.2951 147.805 37.0594 147.499C36.8278 147.193 36.65 146.833 36.5259 146.42C36.4019 146.002 36.3398 145.549 36.3398 145.061ZM37.8348 144.931V145.061C37.8348 145.367 37.8637 145.653 37.9216 145.917C37.9836 146.182 38.0767 146.416 38.2007 146.618C38.3289 146.817 38.4902 146.974 38.6846 147.09C38.8831 147.201 39.1167 147.257 39.3855 147.257C39.737 147.257 40.0244 147.183 40.2477 147.034C40.4752 146.885 40.6489 146.685 40.7688 146.432C40.8928 146.176 40.9797 145.891 41.0293 145.576V144.453C41.0045 144.21 40.9528 143.982 40.8742 143.771C40.7998 143.56 40.6985 143.376 40.5703 143.219C40.4421 143.058 40.2808 142.934 40.0864 142.847C39.8921 142.756 39.6626 142.71 39.3979 142.71C39.1291 142.71 38.8955 142.768 38.697 142.884C38.4985 143 38.3351 143.159 38.2069 143.362C38.0829 143.564 37.9898 143.8 37.9278 144.069C37.8658 144.338 37.8348 144.625 37.8348 144.931ZM50.0485 141.631V142.723H46.2646V141.631H50.0485ZM47.3564 139.987H48.8513V146.488C48.8513 146.695 48.8802 146.854 48.9381 146.966C49.0002 147.073 49.0849 147.146 49.1925 147.183C49.3 147.22 49.4261 147.239 49.5708 147.239C49.6742 147.239 49.7735 147.232 49.8686 147.22C49.9637 147.208 50.0402 147.195 50.0981 147.183L50.1043 148.324C49.9802 148.361 49.8355 148.394 49.6701 148.423C49.5088 148.452 49.3227 148.467 49.1118 148.467C48.7686 148.467 48.4646 148.407 48.2 148.287C47.9353 148.163 47.7286 147.962 47.5797 147.685C47.4308 147.408 47.3564 147.04 47.3564 146.581V139.987ZM54.1611 148.467C53.6648 148.467 53.2161 148.386 52.815 148.225C52.418 148.06 52.0789 147.83 51.7977 147.536C51.5207 147.243 51.3077 146.897 51.1588 146.5C51.0099 146.103 50.9355 145.675 50.9355 145.216V144.968C50.9355 144.443 51.012 143.968 51.165 143.542C51.318 143.116 51.531 142.752 51.8039 142.45C52.0769 142.144 52.3994 141.91 52.7716 141.749C53.1438 141.588 53.547 141.507 53.9812 141.507C54.4609 141.507 54.8806 141.588 55.2404 141.749C55.6002 141.91 55.8979 142.138 56.1336 142.431C56.3735 142.721 56.5513 143.066 56.6671 143.467C56.787 143.868 56.847 144.311 56.847 144.795V145.434H51.6613V144.36H55.3707V144.243C55.3624 143.974 55.3086 143.722 55.2094 143.486C55.1143 143.25 54.9675 143.06 54.769 142.915C54.5705 142.77 54.3058 142.698 53.975 142.698C53.7269 142.698 53.5056 142.752 53.3113 142.859C53.121 142.963 52.9618 143.114 52.8336 143.312C52.7054 143.511 52.6062 143.75 52.5359 144.032C52.4697 144.309 52.4366 144.621 52.4366 144.968V145.216C52.4366 145.51 52.4759 145.783 52.5545 146.035C52.6372 146.283 52.7571 146.5 52.9143 146.687C53.0714 146.873 53.2616 147.019 53.4849 147.127C53.7083 147.23 53.9626 147.282 54.2479 147.282C54.6077 147.282 54.9282 147.21 55.2094 147.065C55.4906 146.92 55.7346 146.716 55.9413 146.451L56.7291 147.214C56.5844 147.425 56.3962 147.627 56.1646 147.822C55.9331 148.012 55.6498 148.167 55.3148 148.287C54.984 148.407 54.5994 148.467 54.1611 148.467ZM59.5143 142.909V148.343H58.0193V141.631H59.446L59.5143 142.909ZM61.5675 141.588L61.5551 142.977C61.4641 142.961 61.3648 142.948 61.2573 142.94C61.1539 142.932 61.0505 142.928 60.9472 142.928C60.6908 142.928 60.4654 142.965 60.271 143.039C60.0767 143.11 59.9133 143.213 59.781 143.349C59.6528 143.482 59.5536 143.643 59.4833 143.833C59.413 144.023 59.3716 144.236 59.3592 144.472L59.018 144.497C59.018 144.075 59.0594 143.684 59.1421 143.325C59.2248 142.965 59.3489 142.648 59.5143 142.375C59.6838 142.103 59.8947 141.89 60.147 141.737C60.4034 141.584 60.699 141.507 61.034 141.507C61.125 141.507 61.2222 141.515 61.3255 141.532C61.4331 141.548 61.5137 141.567 61.5675 141.588ZM63.999 142.996V148.343H62.5041V141.631H63.9122L63.999 142.996ZM63.7571 144.739L63.2485 144.733C63.2485 144.269 63.3064 143.841 63.4222 143.449C63.538 143.056 63.7075 142.715 63.9308 142.425C64.1541 142.131 64.4312 141.906 64.762 141.749C65.097 141.588 65.4836 141.507 65.922 141.507C66.228 141.507 66.5071 141.553 66.7594 141.644C67.0158 141.73 67.237 141.869 67.4231 142.059C67.6133 142.249 67.7581 142.493 67.8573 142.791C67.9607 143.089 68.0124 143.449 68.0124 143.87V148.343H66.5175V144.001C66.5175 143.674 66.4678 143.418 66.3686 143.231C66.2735 143.045 66.1349 142.913 65.953 142.835C65.7752 142.752 65.5622 142.71 65.3141 142.71C65.0329 142.71 64.793 142.764 64.5945 142.872C64.4002 142.979 64.241 143.126 64.1169 143.312C63.9928 143.498 63.9019 143.713 63.844 143.957C63.7861 144.201 63.7571 144.462 63.7571 144.739ZM67.9193 144.342L67.2184 144.497C67.2184 144.092 67.2742 143.709 67.3859 143.349C67.5017 142.985 67.6692 142.667 67.8883 142.394C68.1116 142.117 68.3866 141.9 68.7133 141.743C69.04 141.586 69.4143 141.507 69.8361 141.507C70.1793 141.507 70.4853 141.555 70.7541 141.65C71.0271 141.741 71.2586 141.885 71.4489 142.084C71.6391 142.282 71.7838 142.541 71.8831 142.859C71.9823 143.174 72.0319 143.554 72.0319 144.001V148.343H70.5308V143.994C70.5308 143.655 70.4812 143.393 70.3819 143.207C70.2868 143.021 70.1504 142.892 69.9725 142.822C69.7947 142.748 69.5817 142.71 69.3336 142.71C69.1021 142.71 68.8974 142.754 68.7195 142.841C68.5458 142.923 68.399 143.041 68.2791 143.194C68.1592 143.343 68.0682 143.515 68.0062 143.709C67.9483 143.903 67.9193 144.114 67.9193 144.342ZM81.0325 141.631H82.391V148.157C82.391 148.76 82.2628 149.273 82.0064 149.695C81.75 150.117 81.3923 150.437 80.9333 150.656C80.4742 150.88 79.9428 150.991 79.3391 150.991C79.0827 150.991 78.7974 150.954 78.4831 150.88C78.1729 150.805 77.871 150.685 77.5774 150.52C77.288 150.359 77.046 150.146 76.8517 149.881L77.5526 149C77.7925 149.286 78.0571 149.494 78.3466 149.627C78.6361 149.759 78.94 149.825 79.2584 149.825C79.6017 149.825 79.8932 149.761 80.1331 149.633C80.3771 149.509 80.5652 149.325 80.6975 149.081C80.8299 148.837 80.896 148.539 80.896 148.188V143.151L81.0325 141.631ZM76.4733 145.061V144.931C76.4733 144.422 76.5353 143.959 76.6594 143.542C76.7834 143.12 76.9613 142.758 77.1928 142.456C77.4244 142.15 77.7056 141.916 78.0365 141.755C78.3673 141.59 78.7415 141.507 79.1592 141.507C79.5934 141.507 79.9635 141.586 80.2695 141.743C80.5797 141.9 80.8381 142.125 81.0449 142.419C81.2517 142.708 81.413 143.056 81.5287 143.461C81.6487 143.862 81.7376 144.309 81.7955 144.801V145.216C81.7417 145.696 81.6507 146.135 81.5225 146.531C81.3943 146.928 81.2248 147.272 81.0139 147.561C80.803 147.851 80.5425 148.074 80.2323 148.231C79.9263 148.388 79.5645 148.467 79.1468 148.467C78.7374 148.467 78.3673 148.382 78.0365 148.213C77.7098 148.043 77.4286 147.805 77.1928 147.499C76.9613 147.193 76.7834 146.833 76.6594 146.42C76.5353 146.002 76.4733 145.549 76.4733 145.061ZM77.9682 144.931V145.061C77.9682 145.367 77.9972 145.653 78.0551 145.917C78.1171 146.182 78.2101 146.416 78.3342 146.618C78.4624 146.817 78.6237 146.974 78.818 147.09C79.0165 147.201 79.2502 147.257 79.519 147.257C79.8705 147.257 80.1579 147.183 80.3812 147.034C80.6086 146.885 80.7823 146.685 80.9022 146.432C81.0263 146.176 81.1131 145.891 81.1628 145.576V144.453C81.138 144.21 81.0863 143.982 81.0077 143.771C80.9333 143.56 80.8319 143.376 80.7037 143.219C80.5755 143.058 80.4143 142.934 80.2199 142.847C80.0255 142.756 79.796 142.71 79.5314 142.71C79.2626 142.71 79.0289 142.768 78.8304 142.884C78.6319 143 78.4686 143.159 78.3404 143.362C78.2163 143.564 78.1233 143.8 78.0613 144.069C77.9992 144.338 77.9682 144.625 77.9682 144.931ZM87.7256 146.997V143.796C87.7256 143.556 87.6821 143.349 87.5953 143.176C87.5084 143.002 87.3761 142.868 87.1983 142.772C87.0246 142.677 86.8054 142.63 86.5408 142.63C86.2968 142.63 86.0859 142.671 85.9081 142.754C85.7303 142.837 85.5917 142.948 85.4925 143.089C85.3932 143.229 85.3436 143.389 85.3436 143.566H83.8549C83.8549 143.302 83.919 143.045 84.0472 142.797C84.1754 142.549 84.3615 142.328 84.6054 142.134C84.8494 141.939 85.141 141.786 85.4801 141.675C85.8192 141.563 86.1996 141.507 86.6214 141.507C87.1259 141.507 87.5725 141.592 87.9613 141.761C88.3541 141.931 88.6622 142.187 88.8855 142.531C89.113 142.87 89.2267 143.296 89.2267 143.808V146.792C89.2267 147.098 89.2474 147.373 89.2887 147.617C89.3342 147.857 89.3983 148.066 89.481 148.244V148.343H87.9489C87.8786 148.181 87.8227 147.977 87.7814 147.729C87.7442 147.476 87.7256 147.232 87.7256 146.997ZM87.9427 144.261L87.9551 145.185H86.8819C86.6049 145.185 86.3609 145.212 86.15 145.266C85.9391 145.316 85.7633 145.39 85.6227 145.489C85.4821 145.589 85.3767 145.709 85.3064 145.849C85.2361 145.99 85.2009 146.149 85.2009 146.327C85.2009 146.505 85.2423 146.668 85.325 146.817C85.4077 146.962 85.5276 147.075 85.6848 147.158C85.846 147.241 86.0404 147.282 86.2678 147.282C86.5739 147.282 86.8406 147.22 87.068 147.096C87.2996 146.968 87.4816 146.813 87.6139 146.631C87.7462 146.445 87.8165 146.269 87.8248 146.103L88.3086 146.767C88.259 146.937 88.1742 147.119 88.0543 147.313C87.9344 147.507 87.7772 147.694 87.5829 147.871C87.3927 148.045 87.1631 148.188 86.8944 148.299C86.6297 148.411 86.3237 148.467 85.9763 148.467C85.538 148.467 85.1472 148.38 84.8039 148.206C84.4607 148.028 84.1919 147.791 83.9975 147.493C83.8032 147.191 83.706 146.85 83.706 146.469C83.706 146.114 83.7722 145.8 83.9045 145.527C84.041 145.25 84.2395 145.018 84.5 144.832C84.7647 144.646 85.0872 144.505 85.4677 144.41C85.8481 144.311 86.2823 144.261 86.7703 144.261H87.9427ZM92.3902 141.631V148.343H90.8891V141.631H92.3902ZM90.7898 139.869C90.7898 139.642 90.8643 139.454 91.0131 139.305C91.1661 139.152 91.3771 139.075 91.6458 139.075C91.9105 139.075 92.1193 139.152 92.2724 139.305C92.4254 139.454 92.5019 139.642 92.5019 139.869C92.5019 140.093 92.4254 140.279 92.2724 140.428C92.1193 140.577 91.9105 140.651 91.6458 140.651C91.3771 140.651 91.1661 140.577 91.0131 140.428C90.8643 140.279 90.7898 140.093 90.7898 139.869ZM95.5103 143.064V148.343H94.0154V141.631H95.4235L95.5103 143.064ZM95.2436 144.739L94.7598 144.733C94.7639 144.257 94.8301 143.821 94.9583 143.424C95.0906 143.027 95.2725 142.686 95.5041 142.4C95.7398 142.115 96.021 141.896 96.3477 141.743C96.6744 141.586 97.0383 141.507 97.4395 141.507C97.762 141.507 98.0536 141.553 98.3141 141.644C98.5788 141.73 98.8041 141.873 98.9902 142.072C99.1804 142.27 99.3252 142.528 99.4244 142.847C99.5237 143.161 99.5733 143.548 99.5733 144.007V148.343H98.0722V144.001C98.0722 143.678 98.0246 143.424 97.9295 143.238C97.8385 143.047 97.7041 142.913 97.5263 142.835C97.3526 142.752 97.1355 142.71 96.875 142.71C96.6186 142.71 96.3891 142.764 96.1865 142.872C95.9838 142.979 95.8122 143.126 95.6716 143.312C95.5351 143.498 95.4297 143.713 95.3553 143.957C95.2808 144.201 95.2436 144.462 95.2436 144.739ZM104.864 146.525C104.864 146.376 104.827 146.242 104.753 146.122C104.678 145.998 104.536 145.886 104.325 145.787C104.118 145.688 103.812 145.597 103.407 145.514C103.051 145.436 102.724 145.343 102.427 145.235C102.133 145.123 101.881 144.989 101.67 144.832C101.459 144.675 101.296 144.489 101.18 144.274C101.064 144.059 101.006 143.81 101.006 143.529C101.006 143.256 101.066 142.998 101.186 142.754C101.306 142.51 101.478 142.295 101.701 142.109C101.924 141.923 102.195 141.776 102.514 141.668C102.836 141.561 103.196 141.507 103.593 141.507C104.155 141.507 104.637 141.602 105.038 141.792C105.443 141.978 105.754 142.233 105.969 142.555C106.184 142.874 106.291 143.234 106.291 143.635H104.796C104.796 143.457 104.751 143.291 104.66 143.138C104.573 142.981 104.441 142.855 104.263 142.76C104.085 142.661 103.862 142.611 103.593 142.611C103.336 142.611 103.123 142.653 102.954 142.735C102.789 142.814 102.664 142.917 102.582 143.045C102.503 143.174 102.464 143.314 102.464 143.467C102.464 143.579 102.485 143.68 102.526 143.771C102.571 143.858 102.646 143.939 102.749 144.013C102.853 144.083 102.993 144.15 103.171 144.212C103.353 144.274 103.58 144.334 103.853 144.391C104.366 144.499 104.807 144.638 105.175 144.807C105.547 144.972 105.832 145.188 106.031 145.452C106.229 145.713 106.328 146.044 106.328 146.445C106.328 146.742 106.264 147.015 106.136 147.263C106.012 147.507 105.83 147.72 105.59 147.902C105.35 148.08 105.063 148.219 104.728 148.318C104.397 148.417 104.025 148.467 103.611 148.467C103.004 148.467 102.489 148.359 102.067 148.144C101.645 147.925 101.325 147.646 101.105 147.307C100.89 146.964 100.783 146.608 100.783 146.24H102.228C102.245 146.517 102.321 146.738 102.458 146.904C102.598 147.065 102.772 147.183 102.979 147.257C103.19 147.328 103.407 147.363 103.63 147.363C103.899 147.363 104.124 147.328 104.306 147.257C104.488 147.183 104.627 147.084 104.722 146.96C104.817 146.831 104.864 146.687 104.864 146.525Z" fill="#62BF8D"/>
</g>
<rect x="170.91" y="125.887" width="60.3941" height="75.1167" rx="7.62144" transform="rotate(-11.5727 170.91 125.887)" fill="#3B9AD0"/>
<rect x="173.787" y="143.143" width="167.198" height="100.152" rx="7.62144" transform="rotate(-11.5727 173.787 143.143)" fill="#82C6ED"/>
<g filter="url(#filter2_d_2621_13787)">
<rect x="345.44" y="6.71143" width="113.559" height="62.4958" rx="5.0815" fill="white"/>
<path d="M377.395 28.2642H427.809" stroke="#E3757D" stroke-width="9.32864" stroke-linecap="round" stroke-linejoin="round"/>
<path d="M378.822 44.8053V53.8369H377.278V44.8053H378.822ZM381.657 44.8053V46.0459H374.468V44.8053H381.657ZM381.545 50.5555V50.4129C381.545 49.929 381.616 49.4803 381.756 49.0668C381.897 48.6491 382.1 48.2873 382.364 47.9813C382.633 47.6711 382.96 47.4313 383.344 47.2617C383.733 47.088 384.171 47.0012 384.659 47.0012C385.151 47.0012 385.59 47.088 385.974 47.2617C386.363 47.4313 386.692 47.6711 386.961 47.9813C387.23 48.2873 387.434 48.6491 387.575 49.0668C387.715 49.4803 387.786 49.929 387.786 50.4129V50.5555C387.786 51.0394 387.715 51.488 387.575 51.9016C387.434 52.3151 387.23 52.677 386.961 52.9871C386.692 53.2931 386.365 53.533 385.981 53.7067C385.596 53.8762 385.16 53.961 384.672 53.961C384.18 53.961 383.739 53.8762 383.351 53.7067C382.966 53.533 382.639 53.2931 382.37 52.9871C382.102 52.677 381.897 52.3151 381.756 51.9016C381.616 51.488 381.545 51.0394 381.545 50.5555ZM383.04 50.4129V50.5555C383.04 50.8574 383.071 51.1427 383.133 51.4115C383.195 51.6803 383.293 51.916 383.425 52.1187C383.557 52.3213 383.727 52.4805 383.934 52.5963C384.14 52.7121 384.386 52.77 384.672 52.77C384.949 52.77 385.189 52.7121 385.391 52.5963C385.598 52.4805 385.768 52.3213 385.9 52.1187C386.032 51.916 386.13 51.6803 386.192 51.4115C386.258 51.1427 386.291 50.8574 386.291 50.5555V50.4129C386.291 50.1151 386.258 49.8339 386.192 49.5692C386.13 49.3004 386.03 49.0627 385.894 48.8559C385.761 48.6491 385.592 48.4879 385.385 48.3721C385.183 48.2521 384.941 48.1922 384.659 48.1922C384.378 48.1922 384.134 48.2521 383.927 48.3721C383.725 48.4879 383.557 48.6491 383.425 48.8559C383.293 49.0627 383.195 49.3004 383.133 49.5692C383.071 49.8339 383.04 50.1151 383.04 50.4129ZM392.115 47.1253V48.217H388.332V47.1253H392.115ZM389.423 45.4815H390.918V51.9822C390.918 52.189 390.947 52.3482 391.005 52.4598C391.067 52.5674 391.152 52.6397 391.259 52.677C391.367 52.7142 391.493 52.7328 391.638 52.7328C391.741 52.7328 391.84 52.7266 391.936 52.7142C392.031 52.7018 392.107 52.6894 392.165 52.677L392.171 53.8183C392.047 53.8555 391.902 53.8886 391.737 53.9176C391.576 53.9465 391.39 53.961 391.179 53.961C390.836 53.961 390.532 53.901 390.267 53.7811C390.002 53.657 389.795 53.4565 389.647 53.1794C389.498 52.9023 389.423 52.5343 389.423 52.0753V45.4815ZM397.053 52.4909V49.2901C397.053 49.0503 397.01 48.8435 396.923 48.6698C396.836 48.4961 396.704 48.3617 396.526 48.2666C396.352 48.1715 396.133 48.1239 395.868 48.1239C395.624 48.1239 395.413 48.1653 395.236 48.248C395.058 48.3307 394.919 48.4424 394.82 48.583C394.721 48.7236 394.671 48.8828 394.671 49.0606H393.182C393.182 48.7959 393.246 48.5395 393.375 48.2914C393.503 48.0433 393.689 47.8221 393.933 47.6277C394.177 47.4333 394.468 47.2803 394.808 47.1687C395.147 47.057 395.527 47.0012 395.949 47.0012C396.453 47.0012 396.9 47.086 397.289 47.2555C397.682 47.4251 397.99 47.6815 398.213 48.0247C398.44 48.3638 398.554 48.7897 398.554 49.3025V52.2862C398.554 52.5922 398.575 52.8672 398.616 53.1112C398.662 53.351 398.726 53.5598 398.808 53.7377V53.8369H397.276C397.206 53.6756 397.15 53.4709 397.109 53.2228C397.072 52.9706 397.053 52.7266 397.053 52.4909ZM397.27 49.7553L397.283 50.6796H396.209C395.932 50.6796 395.688 50.7065 395.477 50.7602C395.267 50.8098 395.091 50.8843 394.95 50.9835C394.81 51.0828 394.704 51.2027 394.634 51.3433C394.564 51.4839 394.528 51.6431 394.528 51.8209C394.528 51.9988 394.57 52.1621 394.652 52.311C394.735 52.4557 394.855 52.5694 395.012 52.6521C395.173 52.7348 395.368 52.7762 395.595 52.7762C395.901 52.7762 396.168 52.7142 396.395 52.5901C396.627 52.4619 396.809 52.3068 396.941 52.1249C397.074 51.9388 397.144 51.763 397.152 51.5976L397.636 52.2613C397.586 52.4309 397.502 52.6129 397.382 52.8072C397.262 53.0016 397.105 53.1877 396.91 53.3655C396.72 53.5392 396.491 53.6818 396.222 53.7935C395.957 53.9051 395.651 53.961 395.304 53.961C394.865 53.961 394.475 53.8741 394.131 53.7004C393.788 53.5226 393.519 53.2848 393.325 52.9871C393.131 52.6852 393.033 52.3441 393.033 51.9636C393.033 51.608 393.1 51.2937 393.232 51.0207C393.368 50.7437 393.567 50.5121 393.827 50.326C394.092 50.1399 394.415 49.9993 394.795 49.9042C395.176 49.805 395.61 49.7553 396.098 49.7553H397.27ZM401.718 44.3091V53.8369H400.217V44.3091H401.718ZM408.541 53.8369H407.046V46.4801C407.046 45.9798 407.139 45.56 407.325 45.2209C407.515 44.8777 407.786 44.6192 408.138 44.4456C408.489 44.2677 408.905 44.1788 409.385 44.1788C409.533 44.1788 409.68 44.1892 409.825 44.2098C409.97 44.2264 410.11 44.2533 410.247 44.2905L410.21 45.4442C410.127 45.4236 410.036 45.4091 409.937 45.4008C409.842 45.3926 409.738 45.3884 409.627 45.3884C409.399 45.3884 409.203 45.4318 409.037 45.5187C408.876 45.6014 408.752 45.7234 408.665 45.8847C408.582 46.0459 408.541 46.2444 408.541 46.4801V53.8369ZM409.924 47.1253V48.217H406.016V47.1253H409.924ZM413.82 53.961C413.323 53.961 412.875 53.8803 412.474 53.7191C412.077 53.5536 411.738 53.3241 411.456 53.0305C411.179 52.7369 410.966 52.3916 410.817 51.9946C410.669 51.5976 410.594 51.1696 410.594 50.7106V50.4625C410.594 49.9373 410.671 49.4617 410.824 49.0358C410.977 48.6098 411.19 48.2459 411.463 47.9441C411.736 47.638 412.058 47.4044 412.43 47.2431C412.802 47.0818 413.206 47.0012 413.64 47.0012C414.12 47.0012 414.539 47.0818 414.899 47.2431C415.259 47.4044 415.557 47.6318 415.792 47.9254C416.032 48.2149 416.21 48.5602 416.326 48.9613C416.446 49.3625 416.506 49.805 416.506 50.2888V50.9277H411.32V49.8546H415.029V49.7367C415.021 49.4679 414.967 49.2157 414.868 48.98C414.773 48.7442 414.626 48.554 414.428 48.4093C414.229 48.2645 413.964 48.1922 413.634 48.1922C413.386 48.1922 413.164 48.2459 412.97 48.3535C412.78 48.4568 412.62 48.6078 412.492 48.8063C412.364 49.0048 412.265 49.2446 412.195 49.5258C412.128 49.8029 412.095 50.1151 412.095 50.4625V50.7106C412.095 51.0042 412.135 51.2771 412.213 51.5294C412.296 51.7775 412.416 51.9946 412.573 52.1807C412.73 52.3668 412.92 52.5136 413.144 52.6211C413.367 52.7245 413.621 52.7762 413.907 52.7762C414.266 52.7762 414.587 52.7038 414.868 52.5591C415.149 52.4144 415.393 52.2097 415.6 51.945L416.388 52.708C416.243 52.9189 416.055 53.1215 415.823 53.3159C415.592 53.5061 415.308 53.6612 414.973 53.7811C414.643 53.901 414.258 53.961 413.82 53.961ZM420.631 53.961C420.134 53.961 419.686 53.8803 419.285 53.7191C418.888 53.5536 418.548 53.3241 418.267 53.0305C417.99 52.7369 417.777 52.3916 417.628 51.9946C417.48 51.5976 417.405 51.1696 417.405 50.7106V50.4625C417.405 49.9373 417.482 49.4617 417.635 49.0358C417.788 48.6098 418.001 48.2459 418.273 47.9441C418.546 47.638 418.869 47.4044 419.241 47.2431C419.613 47.0818 420.017 47.0012 420.451 47.0012C420.93 47.0012 421.35 47.0818 421.71 47.2431C422.07 47.4044 422.367 47.6318 422.603 47.9254C422.843 48.2149 423.021 48.5602 423.137 48.9613C423.257 49.3625 423.317 49.805 423.317 50.2888V50.9277H418.131V49.8546H421.84V49.7367C421.832 49.4679 421.778 49.2157 421.679 48.98C421.584 48.7442 421.437 48.554 421.239 48.4093C421.04 48.2645 420.775 48.1922 420.445 48.1922C420.196 48.1922 419.975 48.2459 419.781 48.3535C419.591 48.4568 419.431 48.6078 419.303 48.8063C419.175 49.0048 419.076 49.2446 419.005 49.5258C418.939 49.8029 418.906 50.1151 418.906 50.4625V50.7106C418.906 51.0042 418.945 51.2771 419.024 51.5294C419.107 51.7775 419.227 51.9946 419.384 52.1807C419.541 52.3668 419.731 52.5136 419.955 52.6211C420.178 52.7245 420.432 52.7762 420.717 52.7762C421.077 52.7762 421.398 52.7038 421.679 52.5591C421.96 52.4144 422.204 52.2097 422.411 51.945L423.199 52.708C423.054 52.9189 422.866 53.1215 422.634 53.3159C422.403 53.5061 422.119 53.6612 421.784 53.7811C421.454 53.901 421.069 53.961 420.631 53.961ZM428.248 52.0194C428.248 51.8706 428.211 51.7362 428.136 51.6162C428.062 51.4922 427.919 51.3805 427.708 51.2813C427.502 51.182 427.195 51.091 426.79 51.0083C426.435 50.9298 426.108 50.8367 425.81 50.7292C425.517 50.6176 425.264 50.4832 425.053 50.326C424.842 50.1689 424.679 49.9828 424.563 49.7677C424.448 49.5527 424.39 49.3046 424.39 49.0234C424.39 48.7504 424.45 48.492 424.57 48.248C424.689 48.004 424.861 47.789 425.084 47.6029C425.308 47.4168 425.579 47.27 425.897 47.1625C426.22 47.055 426.579 47.0012 426.976 47.0012C427.539 47.0012 428.02 47.0963 428.422 47.2865C428.827 47.4726 429.137 47.727 429.352 48.0495C429.567 48.3679 429.675 48.7277 429.675 49.1288H428.18C428.18 48.951 428.134 48.7856 428.043 48.6326C427.956 48.4754 427.824 48.3493 427.646 48.2542C427.468 48.155 427.245 48.1053 426.976 48.1053C426.72 48.1053 426.507 48.1467 426.337 48.2294C426.172 48.308 426.048 48.4113 425.965 48.5395C425.887 48.6677 425.847 48.8083 425.847 48.9613C425.847 49.073 425.868 49.1743 425.909 49.2653C425.955 49.3521 426.029 49.4328 426.133 49.5072C426.236 49.5775 426.377 49.6437 426.555 49.7057C426.736 49.7677 426.964 49.8277 427.237 49.8856C427.75 49.9931 428.19 50.1317 428.558 50.3012C428.93 50.4666 429.216 50.6817 429.414 50.9463C429.613 51.2068 429.712 51.5377 429.712 51.9388C429.712 52.2365 429.648 52.5095 429.52 52.7576C429.395 53.0016 429.214 53.2145 428.974 53.3965C428.734 53.5743 428.446 53.7129 428.111 53.8121C427.781 53.9114 427.408 53.961 426.995 53.961C426.387 53.961 425.872 53.8535 425.45 53.6384C425.029 53.4192 424.708 53.1401 424.489 52.801C424.274 52.4578 424.166 52.1021 424.166 51.7341H425.612C425.628 52.0112 425.705 52.2324 425.841 52.3978C425.982 52.5591 426.155 52.677 426.362 52.7514C426.573 52.8217 426.79 52.8568 427.014 52.8568C427.282 52.8568 427.508 52.8217 427.69 52.7514C427.872 52.677 428.01 52.5777 428.105 52.4536C428.2 52.3254 428.248 52.1807 428.248 52.0194Z" fill="#E3757D"/>
</g>
<defs>
<filter id="filter0_d_2621_13787" x="144.045" y="0.138428" width="171.861" height="215.771" filterUnits="userSpaceOnUse" color-interpolation-filters="sRGB">
<feFlood flood-opacity="0" result="BackgroundImageFix"/>
<feColorMatrix in="SourceAlpha" type="matrix" values="0 0 0 0 0 0 0 0 0 0 0 0 0 0 0 0 0 0 127 0" result="hardAlpha"/>
<feOffset dy="2"/>
<feGaussianBlur stdDeviation="2"/>
<feColorMatrix type="matrix" values="0 0 0 0 0.411765 0 0 0 0 0.439216 0 0 0 0 0.458824 0 0 0 0.2 0"/>
<feBlend mode="normal" in2="BackgroundImageFix" result="effect1_dropShadow_2621_13787"/>
<feBlend mode="normal" in="SourceGraphic" in2="effect1_dropShadow_2621_13787" result="shape"/>
</filter>
<filter id="filter1_d_2621_13787" x="0.951424" y="99.693" width="119.657" height="68.593" filterUnits="userSpaceOnUse" color-interpolation-filters="sRGB">
<feFlood flood-opacity="0" result="BackgroundImageFix"/>
<feColorMatrix in="SourceAlpha" type="matrix" values="0 0 0 0 0 0 0 0 0 0 0 0 0 0 0 0 0 0 127 0" result="hardAlpha"/>
<feOffset dy="1.52429"/>
<feGaussianBlur stdDeviation="1.52429"/>
<feColorMatrix type="matrix" values="0 0 0 0 0.411765 0 0 0 0 0.439216 0 0 0 0 0.458824 0 0 0 0.2 0"/>
<feBlend mode="normal" in2="BackgroundImageFix" result="effect1_dropShadow_2621_13787"/>
<feBlend mode="normal" in="SourceGraphic" in2="effect1_dropShadow_2621_13787" result="shape"/>
</filter>
<filter id="filter2_d_2621_13787" x="342.392" y="5.18714" width="119.657" height="68.593" filterUnits="userSpaceOnUse" color-interpolation-filters="sRGB">
<feFlood flood-opacity="0" result="BackgroundImageFix"/>
<feColorMatrix in="SourceAlpha" type="matrix" values="0 0 0 0 0 0 0 0 0 0 0 0 0 0 0 0 0 0 127 0" result="hardAlpha"/>
<feOffset dy="1.52429"/>
<feGaussianBlur stdDeviation="1.52429"/>
<feColorMatrix type="matrix" values="0 0 0 0 0.411765 0 0 0 0 0.439216 0 0 0 0 0.458824 0 0 0 0.2 0"/>
<feBlend mode="normal" in2="BackgroundImageFix" result="effect1_dropShadow_2621_13787"/>
<feBlend mode="normal" in="SourceGraphic" in2="effect1_dropShadow_2621_13787" result="shape"/>
</filter>
<clipPath id="clip0_2621_13787">
<path d="M148.045 6.13843C148.045 3.92929 149.836 2.13843 152.045 2.13843H307.906C310.115 2.13843 311.906 3.92929 311.906 6.13843V205.91C311.906 208.119 310.115 209.91 307.906 209.91H152.045C149.836 209.91 148.045 208.119 148.045 205.91V6.13843Z" fill="white"/>
</clipPath>
</defs>
</svg>
